<?xml version="1.0" encoding="UTF-8" standalone="no"?>
<svg
   xmlns:dc="http://purl.org/dc/elements/1.1/"
   xmlns:cc="http://creativecommons.org/ns#"
   xmlns:rdf="http://www.w3.org/1999/02/22-rdf-syntax-ns#"
   xmlns:svg="http://www.w3.org/2000/svg"
   xmlns="http://www.w3.org/2000/svg"
   xmlns:sodipodi="http://sodipodi.sourceforge.net/DTD/sodipodi-0.dtd"
   xmlns:inkscape="http://www.inkscape.org/namespaces/inkscape"
   id="Logo_FIXED"
   data-name="Logo — FIXED"
   viewBox="0 0 400 400"
   version="1.1"
   sodipodi:docname="Twitter-Black.svg"
   inkscape:version="1.0 (4035a4fb49, 2020-05-01)">
  <metadata
     id="metadata15">
    <rdf:RDF>
      <cc:Work
         rdf:about="">
        <dc:format>image/svg+xml</dc:format>
        <dc:type
           rdf:resource="http://purl.org/dc/dcmitype/StillImage" />
        <dc:title>Twitter_Logo_Blue</dc:title>
      </cc:Work>
    </rdf:RDF>
  </metadata>
  <sodipodi:namedview
     inkscape:document-rotation="0"
     pagecolor="#ffffff"
     bordercolor="#666666"
     borderopacity="1"
     objecttolerance="10"
     gridtolerance="10"
     guidetolerance="10"
     inkscape:pageopacity="0"
     inkscape:pageshadow="2"
     inkscape:window-width="909"
     inkscape:window-height="480"
     id="namedview13"
     showgrid="false"
     inkscape:zoom="0.53125"
     inkscape:cx="204.01399"
     inkscape:cy="174.07996"
     inkscape:window-x="0"
     inkscape:window-y="418"
     inkscape:window-maximized="0"
     inkscape:current-layer="Logo_FIXED" />
  <defs
     id="defs4">
    <style
       id="style2">.cls-1{fill:none;}.cls-2{fill:#1da1f2;}</style>
  </defs>
  <title
     id="title6">Twitter_Logo_Blue</title>
  <rect
     class="cls-1"
     width="400"
     height="400"
     id="rect8" />
  <path
     class="cls-2"
     d="m 127.07973,359.71135 c 148.32467,0 229.45202,-122.88591 229.45202,-229.45202 0,-3.49036 0,-6.965 -0.23584,-10.42392 A 164.07848,164.07848 0 0 0 396.52941,78.092563 160.96545,160.96545 0 0 1 350.21136,90.780502 80.922951,80.922951 0 0 0 385.66527,46.176186 161.61007,161.61007 0 0 1 334.45756,65.750516 80.71856,80.71856 0 0 0 197.02848,139.29968 228.9489,228.9489 0 0 1 30.827482,55.043594 80.702838,80.702838 0 0 0 55.794579,162.69454 80.042499,80.042499 0 0 1 19.192941,152.60079 c 0,0.33017 0,0.67606 0,1.02196 a 80.671393,80.671393 0 0 0 64.697483,79.05199 80.514169,80.514169 0 0 1 -36.41297,1.38356 80.734282,80.734282 0 0 0 75.341516,56.00303 A 161.81446,161.81446 0 0 1 22.667581,324.6505 164.15709,164.15709 0 0 1 3.4705882,323.48705 228.30429,228.30429 0 0 0 127.07973,359.64846"
     id="path10"
     style="fill:#000000;stroke-width:1.57224" />
</svg>
